<?xml version="1.0" encoding="UTF-8"?>
<svg version="1.1" viewBox="0 0 1080 1080" width="1280" height="1280" xmlns="http://www.w3.org/2000/svg">
<path transform="translate(0)" d="m0 0h1080v1080h-1080z"/>
<path transform="translate(166,377)" d="m0 0h77l30 3 24 5 17 5 19 8 15 9 13 10 13 13 10 14 9 17 7 20 4 18 2 15 1 27-1 19-4 24-6 20-8 18-10 15-11 13-11 10-18 12-21 10-21 7-24 5-25 3h-82l-4-3-1-3v-127h68v69l36-3 19-5 12-5 12-7 10-9 9-13 6-13 4-15 2-16v-20l-3-20-5-15-7-13-9-11-11-9-15-8-20-6-12-2-28-2v70h-68v-128l2-4z" fill="#FEFEFE"/>
<path transform="translate(416,377)" d="m0 0h152l-1 64h-88v63h120l5 3 2 3v53l-4 5-2 1h-121v128l-60 1-6-3-2-3v-309l3-5z" fill="#FEFEFE"/>
<path transform="translate(833,384)" d="m0 0h64l-2 5-12 16-14 20-26 36-12 17-26 36-10 14-6 9 7 11 12 16 13 18 12 17 13 18 8 12v1h-63l-10-13-11-16-13-18-4 4-13 19-9 12-13 18-12 17-13 18-13 19h-64l4-7 13-18 24-34 13-18 12-17 13-18 14-20 13-18 1-4-13-18-10-14-24-34-13-18-5-8h64l26 36 8 11 2 1 2-5 13-18 24-34 13-18 11-16z"/>
<path transform="translate(831,377)" d="m0 0h69l5 4v6l-11 16-26 36-12 17-26 36-12 17-13 18-6 8 1 5 12 17 14 19 12 17 10 14 12 17 9 13v1h-82l-13-18-13-19-5-5-13 18-12 17-26 36-14 20-8 10h-71l-4-3v-7l13-18 12-17 10-14 12-17 13-18 24-34 13-18 9-13-2-4-48-68-13-18-7-11h82l12 16 10 14 8 11 1 1 11-16 12-17 13-18 14-20 12-17 9-12zm2 7-12 17-14 20-13 18-14 20-12 17-10 14v2l-5-5-26-36-5-7h-64l7 11 12 16 11 16 12 17 13 18 10 14-1 4-13 18-12 17-13 18-10 14-14 20-13 18-24 34-7 10v1h64l11-16 26-36 12-17 10-14 13-18 4-6 5 5 9 13 12 17 9 12h63l-4-7-12-17-13-18-12-17-14-19-10-14 5-9 10-13 13-19 12-16 12-17 13-18 12-17 13-18 10-14 8-11v-2z" fill="#FEFEFE"/>
</svg>
